<mxfile host="app.diagrams.net" modified="2021-06-06T00:33:24.757Z" agent="5.0 (Windows NT 10.0; Win64; x64) AppleWebKit/537.36 (KHTML, like Gecko) Chrome/91.0.4472.77 Safari/537.36" etag="Xie0l0jjmTSU84g_CEi2" version="14.7.6" type="github">
  <diagram id="qNtHvHr-Q_ltwnV1EGBj" name="Page-1">
    <mxGraphModel dx="915" dy="704" grid="1" gridSize="10" guides="1" tooltips="1" connect="1" arrows="1" fold="1" page="1" pageScale="1" pageWidth="827" pageHeight="1169" math="0" shadow="0">
      <root>
        <mxCell id="0" />
        <mxCell id="1" parent="0" />
        <mxCell id="krzsDNiwhunDcSRvIfEf-26" style="edgeStyle=orthogonalEdgeStyle;rounded=0;orthogonalLoop=1;jettySize=auto;html=1;endArrow=open;endFill=0;dashed=1;" edge="1" parent="1" source="krzsDNiwhunDcSRvIfEf-27" target="krzsDNiwhunDcSRvIfEf-40">
          <mxGeometry relative="1" as="geometry">
            <Array as="points">
              <mxPoint x="444" y="528" />
              <mxPoint x="444" y="528" />
            </Array>
          </mxGeometry>
        </mxCell>
        <mxCell id="krzsDNiwhunDcSRvIfEf-27" value="Team Controller" style="swimlane;fontStyle=1;align=center;verticalAlign=top;childLayout=stackLayout;horizontal=1;startSize=26;horizontalStack=0;resizeParent=1;resizeParentMax=0;resizeLast=0;collapsible=1;marginBottom=0;" vertex="1" parent="1">
          <mxGeometry x="280" y="230" width="240" height="164" as="geometry" />
        </mxCell>
        <mxCell id="krzsDNiwhunDcSRvIfEf-28" value="- teamView : Team View" style="text;strokeColor=none;fillColor=none;align=left;verticalAlign=top;spacingLeft=4;spacingRight=4;overflow=hidden;rotatable=0;points=[[0,0.5],[1,0.5]];portConstraint=eastwest;" vertex="1" parent="krzsDNiwhunDcSRvIfEf-27">
          <mxGeometry y="26" width="240" height="26" as="geometry" />
        </mxCell>
        <mxCell id="krzsDNiwhunDcSRvIfEf-29" value="- teamData : Team Data" style="text;strokeColor=none;fillColor=none;align=left;verticalAlign=top;spacingLeft=4;spacingRight=4;overflow=hidden;rotatable=0;points=[[0,0.5],[1,0.5]];portConstraint=eastwest;" vertex="1" parent="krzsDNiwhunDcSRvIfEf-27">
          <mxGeometry y="52" width="240" height="26" as="geometry" />
        </mxCell>
        <mxCell id="krzsDNiwhunDcSRvIfEf-30" value="- teamMemberData : Team Member Data" style="text;strokeColor=none;fillColor=none;align=left;verticalAlign=top;spacingLeft=4;spacingRight=4;overflow=hidden;rotatable=0;points=[[0,0.5],[1,0.5]];portConstraint=eastwest;" vertex="1" parent="krzsDNiwhunDcSRvIfEf-27">
          <mxGeometry y="78" width="240" height="26" as="geometry" />
        </mxCell>
        <mxCell id="krzsDNiwhunDcSRvIfEf-31" value="" style="line;strokeWidth=1;fillColor=none;align=left;verticalAlign=middle;spacingTop=-1;spacingLeft=3;spacingRight=3;rotatable=0;labelPosition=right;points=[];portConstraint=eastwest;" vertex="1" parent="krzsDNiwhunDcSRvIfEf-27">
          <mxGeometry y="104" width="240" height="8" as="geometry" />
        </mxCell>
        <mxCell id="krzsDNiwhunDcSRvIfEf-33" value="+ showTeamData()" style="text;strokeColor=none;fillColor=none;align=left;verticalAlign=top;spacingLeft=4;spacingRight=4;overflow=hidden;rotatable=0;points=[[0,0.5],[1,0.5]];portConstraint=eastwest;" vertex="1" parent="krzsDNiwhunDcSRvIfEf-27">
          <mxGeometry y="112" width="240" height="26" as="geometry" />
        </mxCell>
        <mxCell id="krzsDNiwhunDcSRvIfEf-51" value="+ changeTeamData()" style="text;strokeColor=none;fillColor=none;align=left;verticalAlign=top;spacingLeft=4;spacingRight=4;overflow=hidden;rotatable=0;points=[[0,0.5],[1,0.5]];portConstraint=eastwest;" vertex="1" parent="krzsDNiwhunDcSRvIfEf-27">
          <mxGeometry y="138" width="240" height="26" as="geometry" />
        </mxCell>
        <mxCell id="krzsDNiwhunDcSRvIfEf-35" style="edgeStyle=orthogonalEdgeStyle;rounded=0;orthogonalLoop=1;jettySize=auto;html=1;dashed=1;endArrow=open;endFill=0;" edge="1" parent="1" source="krzsDNiwhunDcSRvIfEf-36" target="krzsDNiwhunDcSRvIfEf-27">
          <mxGeometry relative="1" as="geometry">
            <mxPoint x="210" y="364" as="sourcePoint" />
          </mxGeometry>
        </mxCell>
        <mxCell id="krzsDNiwhunDcSRvIfEf-36" value="Team View" style="swimlane;fontStyle=1;align=center;verticalAlign=top;childLayout=stackLayout;horizontal=1;startSize=26;horizontalStack=0;resizeParent=1;resizeParentMax=0;resizeLast=0;collapsible=1;marginBottom=0;" vertex="1" parent="1">
          <mxGeometry x="70" y="269" width="160" height="86" as="geometry" />
        </mxCell>
        <mxCell id="krzsDNiwhunDcSRvIfEf-54" value="- Team Management Panel" style="text;strokeColor=none;fillColor=none;align=left;verticalAlign=top;spacingLeft=4;spacingRight=4;overflow=hidden;rotatable=0;points=[[0,0.5],[1,0.5]];portConstraint=eastwest;" vertex="1" parent="krzsDNiwhunDcSRvIfEf-36">
          <mxGeometry y="26" width="160" height="26" as="geometry" />
        </mxCell>
        <mxCell id="krzsDNiwhunDcSRvIfEf-55" value="- Team Info Panel" style="text;strokeColor=none;fillColor=none;align=left;verticalAlign=top;spacingLeft=4;spacingRight=4;overflow=hidden;rotatable=0;points=[[0,0.5],[1,0.5]];portConstraint=eastwest;" vertex="1" parent="krzsDNiwhunDcSRvIfEf-36">
          <mxGeometry y="52" width="160" height="26" as="geometry" />
        </mxCell>
        <mxCell id="krzsDNiwhunDcSRvIfEf-38" value="" style="line;strokeWidth=1;fillColor=none;align=left;verticalAlign=middle;spacingTop=-1;spacingLeft=3;spacingRight=3;rotatable=0;labelPosition=right;points=[];portConstraint=eastwest;" vertex="1" parent="krzsDNiwhunDcSRvIfEf-36">
          <mxGeometry y="78" width="160" height="8" as="geometry" />
        </mxCell>
        <mxCell id="krzsDNiwhunDcSRvIfEf-39" style="edgeStyle=orthogonalEdgeStyle;rounded=0;orthogonalLoop=1;jettySize=auto;html=1;dashed=1;endArrow=open;endFill=0;" edge="1" parent="1" source="krzsDNiwhunDcSRvIfEf-40" target="krzsDNiwhunDcSRvIfEf-43">
          <mxGeometry relative="1" as="geometry">
            <mxPoint x="550" y="518" as="targetPoint" />
            <Array as="points" />
          </mxGeometry>
        </mxCell>
        <mxCell id="krzsDNiwhunDcSRvIfEf-40" value="DB Handler" style="swimlane;fontStyle=1;align=center;verticalAlign=top;childLayout=stackLayout;horizontal=1;startSize=26;horizontalStack=0;resizeParent=1;resizeParentMax=0;resizeLast=0;collapsible=1;marginBottom=0;" vertex="1" parent="1">
          <mxGeometry x="300" y="469" width="194" height="86" as="geometry" />
        </mxCell>
        <mxCell id="krzsDNiwhunDcSRvIfEf-41" value="" style="line;strokeWidth=1;fillColor=none;align=left;verticalAlign=middle;spacingTop=-1;spacingLeft=3;spacingRight=3;rotatable=0;labelPosition=right;points=[];portConstraint=eastwest;" vertex="1" parent="krzsDNiwhunDcSRvIfEf-40">
          <mxGeometry y="26" width="194" height="8" as="geometry" />
        </mxCell>
        <mxCell id="krzsDNiwhunDcSRvIfEf-53" value="+ accessTeamData(teamid,userid)" style="text;strokeColor=none;fillColor=none;align=left;verticalAlign=top;spacingLeft=4;spacingRight=4;overflow=hidden;rotatable=0;points=[[0,0.5],[1,0.5]];portConstraint=eastwest;" vertex="1" parent="krzsDNiwhunDcSRvIfEf-40">
          <mxGeometry y="34" width="194" height="26" as="geometry" />
        </mxCell>
        <mxCell id="krzsDNiwhunDcSRvIfEf-42" value="+ saveTeamData(teamid)" style="text;strokeColor=none;fillColor=none;align=left;verticalAlign=top;spacingLeft=4;spacingRight=4;overflow=hidden;rotatable=0;points=[[0,0.5],[1,0.5]];portConstraint=eastwest;" vertex="1" parent="krzsDNiwhunDcSRvIfEf-40">
          <mxGeometry y="60" width="194" height="26" as="geometry" />
        </mxCell>
        <mxCell id="krzsDNiwhunDcSRvIfEf-43" value="Team Member Data" style="swimlane;fontStyle=1;align=center;verticalAlign=top;childLayout=stackLayout;horizontal=1;startSize=26;horizontalStack=0;resizeParent=1;resizeParentMax=0;resizeLast=0;collapsible=1;marginBottom=0;" vertex="1" parent="1">
          <mxGeometry x="540" y="430" width="250" height="164" as="geometry" />
        </mxCell>
        <mxCell id="krzsDNiwhunDcSRvIfEf-44" value="- t_id : int" style="text;strokeColor=none;fillColor=none;align=left;verticalAlign=top;spacingLeft=4;spacingRight=4;overflow=hidden;rotatable=0;points=[[0,0.5],[1,0.5]];portConstraint=eastwest;" vertex="1" parent="krzsDNiwhunDcSRvIfEf-43">
          <mxGeometry y="26" width="250" height="26" as="geometry" />
        </mxCell>
        <mxCell id="krzsDNiwhunDcSRvIfEf-45" value="- u_id : varchar(15)" style="text;strokeColor=none;fillColor=none;align=left;verticalAlign=top;spacingLeft=4;spacingRight=4;overflow=hidden;rotatable=0;points=[[0,0.5],[1,0.5]];portConstraint=eastwest;" vertex="1" parent="krzsDNiwhunDcSRvIfEf-43">
          <mxGeometry y="52" width="250" height="26" as="geometry" />
        </mxCell>
        <mxCell id="krzsDNiwhunDcSRvIfEf-46" value="- m_type : int" style="text;strokeColor=none;fillColor=none;align=left;verticalAlign=top;spacingLeft=4;spacingRight=4;overflow=hidden;rotatable=0;points=[[0,0.5],[1,0.5]];portConstraint=eastwest;" vertex="1" parent="krzsDNiwhunDcSRvIfEf-43">
          <mxGeometry y="78" width="250" height="26" as="geometry" />
        </mxCell>
        <mxCell id="krzsDNiwhunDcSRvIfEf-49" value="" style="line;strokeWidth=1;fillColor=none;align=left;verticalAlign=middle;spacingTop=-1;spacingLeft=3;spacingRight=3;rotatable=0;labelPosition=right;points=[];portConstraint=eastwest;" vertex="1" parent="krzsDNiwhunDcSRvIfEf-43">
          <mxGeometry y="104" width="250" height="8" as="geometry" />
        </mxCell>
        <mxCell id="krzsDNiwhunDcSRvIfEf-50" value="+ getTeamMember()" style="text;strokeColor=none;fillColor=none;align=left;verticalAlign=top;spacingLeft=4;spacingRight=4;overflow=hidden;rotatable=0;points=[[0,0.5],[1,0.5]];portConstraint=eastwest;" vertex="1" parent="krzsDNiwhunDcSRvIfEf-43">
          <mxGeometry y="112" width="250" height="26" as="geometry" />
        </mxCell>
        <mxCell id="krzsDNiwhunDcSRvIfEf-52" value="+ setTeamMember(teamid,memberid,type)" style="text;strokeColor=none;fillColor=none;align=left;verticalAlign=top;spacingLeft=4;spacingRight=4;overflow=hidden;rotatable=0;points=[[0,0.5],[1,0.5]];portConstraint=eastwest;" vertex="1" parent="krzsDNiwhunDcSRvIfEf-43">
          <mxGeometry y="138" width="250" height="26" as="geometry" />
        </mxCell>
      </root>
    </mxGraphModel>
  </diagram>
</mxfile>
